<?xml version="1.0" encoding="us-ascii" standalone="no"?><svg xmlns="http://www.w3.org/2000/svg" xmlns:xlink="http://www.w3.org/1999/xlink" contentStyleType="text/css" height="441px" preserveAspectRatio="none" style="width:517px;height:441px;background:#FFFFFF;" version="1.1" viewBox="0 0 517 441" width="517px" zoomAndPan="magnify"><defs/><g><!--class Channel--><g id="elem_Channel"><rect codeLine="1" fill="#F1F1F1" height="80.9766" id="Channel" rx="2.5" ry="2.5" style="stroke:#181818;stroke-width:0.5;" width="97" x="57" y="43.73"/><ellipse cx="75.6" cy="59.73" fill="#EB937F" rx="11" ry="11" style="stroke:#181818;stroke-width:1.0;"/><path d="M79.2143,66.23 L71.4945,66.23 L71.4945,53.8369 L79.2143,53.8369 L79.2143,55.9951 L73.9433,55.9951 L73.9433,58.668 L78.7162,58.668 L78.7162,60.8262 L73.9433,60.8262 L73.9433,64.0718 L79.2143,64.0718 Z " fill="#000000"/><text fill="#000000" font-family="sans-serif" font-size="14" lengthAdjust="spacing" textLength="57" x="90.4" y="65.021">Channel</text><line style="stroke:#181818;stroke-width:0.5;" x1="58" x2="153" y1="75.73" y2="75.73"/><text fill="#000000" font-family="sans-serif" font-size="14" lengthAdjust="spacing" textLength="28" x="63" y="93.2652">SMS</text><line style="stroke:#181818;stroke-width:1.0;" x1="58" x2="153" y1="100.2183" y2="100.2183"/><text fill="#000000" font-family="sans-serif" font-size="14" lengthAdjust="spacing" textLength="85" x="63" y="117.7534">Rocket_Chat</text></g><!--class MessageStatus--><g id="elem_MessageStatus"><rect codeLine="7" fill="#F1F1F1" height="154.4414" id="MessageStatus" rx="2.5" ry="2.5" style="stroke:#181818;stroke-width:0.5;" width="133" x="189" y="7"/><ellipse cx="204" cy="23" fill="#EB937F" rx="11" ry="11" style="stroke:#181818;stroke-width:1.0;"/><path d="M207.6143,29.5 L199.8945,29.5 L199.8945,17.1069 L207.6143,17.1069 L207.6143,19.2651 L202.3433,19.2651 L202.3433,21.938 L207.1162,21.938 L207.1162,24.0962 L202.3433,24.0962 L202.3433,27.3418 L207.6143,27.3418 Z " fill="#000000"/><text fill="#000000" font-family="sans-serif" font-size="14" lengthAdjust="spacing" textLength="101" x="218" y="28.291">MessageStatus</text><line style="stroke:#181818;stroke-width:0.5;" x1="190" x2="321" y1="39" y2="39"/><text fill="#000000" font-family="sans-serif" font-size="14" lengthAdjust="spacing" textLength="51" x="195" y="56.5352">created</text><line style="stroke:#181818;stroke-width:1.0;" x1="190" x2="321" y1="63.4883" y2="63.4883"/><text fill="#000000" font-family="sans-serif" font-size="14" lengthAdjust="spacing" textLength="52" x="195" y="81.0234">queued</text><line style="stroke:#181818;stroke-width:1.0;" x1="190" x2="321" y1="87.9766" y2="87.9766"/><text fill="#000000" font-family="sans-serif" font-size="14" lengthAdjust="spacing" textLength="29" x="195" y="105.5117">sent</text><line style="stroke:#181818;stroke-width:1.0;" x1="190" x2="321" y1="112.4648" y2="112.4648"/><text fill="#000000" font-family="sans-serif" font-size="14" lengthAdjust="spacing" textLength="57" x="195" y="130">received</text><line style="stroke:#181818;stroke-width:1.0;" x1="190" x2="321" y1="136.9531" y2="136.9531"/><text fill="#000000" font-family="sans-serif" font-size="14" lengthAdjust="spacing" textLength="38" x="195" y="154.4883">failed</text></g><!--class IChannelManager--><g id="elem_IChannelManager"><rect codeLine="19" fill="#F1F1F1" height="80.9766" id="IChannelManager" rx="2.5" ry="2.5" style="stroke:#181818;stroke-width:0.5;" width="153" x="357" y="43.73"/><ellipse cx="372" cy="59.73" fill="#F1F1F1" rx="11" ry="11" style="stroke:#181818;stroke-width:1.0;"/><path d="M370.7935,55.8955 L370.7935,59.5313 L371.7979,59.5313 Q373.0015,59.5313 373.4871,59.1245 Q373.9727,58.7178 373.9727,57.7134 Q373.9727,56.709 373.4871,56.3023 Q373.0015,55.8955 371.7979,55.8955 Z M368.3447,53.8369 L371.7065,53.8369 Q374.2715,53.8369 375.3962,54.75 Q376.521,55.6631 376.521,57.7134 Q376.521,59.7637 375.3962,60.6768 Q374.2715,61.5899 371.7065,61.5899 L370.7935,61.5899 L370.7935,66.23 L368.3447,66.23 Z " fill="#000000"/><text fill="#000000" font-family="sans-serif" font-size="14" lengthAdjust="spacing" textLength="121" x="386" y="65.021">IChannelManager</text><line style="stroke:#181818;stroke-width:0.5;" x1="358" x2="509" y1="75.73" y2="75.73"/><text fill="#000000" font-family="sans-serif" font-size="14" lengthAdjust="spacing" textLength="125" x="363" y="93.2652">{Channel} channel</text><line style="stroke:#181818;stroke-width:0.5;" x1="358" x2="509" y1="100.2183" y2="100.2183"/><text fill="#000000" font-family="sans-serif" font-size="14" font-style="italic" lengthAdjust="spacing" textLength="135" x="363" y="117.7534">def get_provider(...)</text></g><!--class IProvider--><g id="elem_IProvider"><rect codeLine="24" fill="#F1F1F1" height="113.9531" id="IProvider" rx="2.5" ry="2.5" style="stroke:#181818;stroke-width:0.5;" width="197" x="7" y="270.9"/><ellipse cx="70.75" cy="286.9" fill="#F1F1F1" rx="11" ry="11" style="stroke:#181818;stroke-width:1.0;"/><path d="M69.5435,283.0655 L69.5435,286.7013 L70.5479,286.7013 Q71.7515,286.7013 72.2371,286.2945 Q72.7227,285.8878 72.7227,284.8834 Q72.7227,283.879 72.2371,283.4723 Q71.7515,283.0655 70.5479,283.0655 Z M67.0947,281.0069 L70.4565,281.0069 Q73.0215,281.0069 74.1462,281.92 Q75.271,282.8331 75.271,284.8834 Q75.271,286.9337 74.1462,287.8468 Q73.0215,288.7599 70.4565,288.7599 L69.5435,288.7599 L69.5435,293.4 L67.0947,293.4 Z " fill="#000000"/><text fill="#000000" font-family="sans-serif" font-size="14" lengthAdjust="spacing" textLength="61" x="91.25" y="292.191">IProvider</text><line style="stroke:#181818;stroke-width:0.5;" x1="8" x2="203" y1="302.9" y2="302.9"/><text fill="#000000" font-family="sans-serif" font-size="14" lengthAdjust="spacing" textLength="58" x="13" y="320.4352">{str} title</text><line style="stroke:#181818;stroke-width:0.5;" x1="8" x2="203" y1="327.3883" y2="327.3883"/><text fill="#000000" font-family="sans-serif" font-size="14" font-style="italic" lengthAdjust="spacing" textLength="105" x="13" y="344.9234">def is_active(...)</text><text fill="#000000" font-family="sans-serif" font-size="14" font-style="italic" lengthAdjust="spacing" textLength="148" x="13" y="361.4117">def send_message(...)</text><text fill="#000000" font-family="sans-serif" font-size="14" font-style="italic" lengthAdjust="spacing" textLength="185" x="13" y="377.9">def get_message_status(...)</text></g><!--class Message--><g id="elem_Message"><rect codeLine="31" fill="#F1F1F1" height="212.8828" id="Message" rx="2.5" ry="2.5" style="stroke:#181818;stroke-width:0.5;" width="168" x="238.5" y="221.44"/><ellipse cx="288.75" cy="237.44" fill="#F1F1F1" rx="11" ry="11" style="stroke:#181818;stroke-width:1.0;"/><path d="M288.4834,238.503 Q286.6323,237.7974 285.9766,237.0213 Q285.3208,236.2452 285.3208,234.9337 Q285.3208,233.2486 286.3999,232.2857 Q287.479,231.3228 289.3633,231.3228 Q290.2183,231.3228 291.0732,231.5179 Q291.9282,231.7129 292.7666,232.0948 L292.7666,234.4854 Q291.978,233.9293 291.1646,233.6387 Q290.3511,233.3482 289.5542,233.3482 Q288.666,233.3482 288.1929,233.7051 Q287.7197,234.0621 287.7197,234.7261 Q287.7197,235.2408 288.0642,235.577 Q288.4087,235.9131 289.5044,236.3199 L290.5586,236.7183 Q292.0527,237.2662 292.7583,238.171 Q293.4639,239.0757 293.4639,240.4537 Q293.4639,242.3296 292.3557,243.2552 Q291.2476,244.1807 289.0063,244.1807 Q288.085,244.1807 287.1594,243.9608 Q286.2339,243.7408 285.3706,243.3091 L285.3706,240.7774 Q286.3501,241.4747 287.2673,241.815 Q288.1846,242.1553 289.0811,242.1553 Q289.9858,242.1553 290.4839,241.7444 Q290.9819,241.3336 290.9819,240.5948 Q290.9819,240.0386 290.6499,239.6194 Q290.3179,239.2003 289.687,238.9595 Z " fill="#000000"/><text fill="#000000" font-family="sans-serif" font-size="14" lengthAdjust="spacing" textLength="59" x="309.25" y="242.731">Message</text><line style="stroke:#181818;stroke-width:0.5;" x1="239.5" x2="405.5" y1="253.44" y2="253.44"/><text fill="#000000" font-family="sans-serif" font-size="14" lengthAdjust="spacing" textLength="45" x="244.5" y="270.9752">{str} id</text><text fill="#000000" font-family="sans-serif" font-size="14" lengthAdjust="spacing" textLength="125" x="244.5" y="287.4634">{Channel} channel</text><text fill="#000000" font-family="sans-serif" font-size="14" lengthAdjust="spacing" textLength="123" x="244.5" y="303.9517">{str} provider_title</text><text fill="#000000" font-family="sans-serif" font-size="14" lengthAdjust="spacing" textLength="153" x="244.5" y="320.44">{str} provider_inner_id</text><text fill="#000000" font-family="sans-serif" font-size="14" lengthAdjust="spacing" textLength="79" x="244.5" y="336.9283">{str} sender</text><text fill="#000000" font-family="sans-serif" font-size="14" lengthAdjust="spacing" textLength="86" x="244.5" y="353.4166">{str} receiver</text><text fill="#000000" font-family="sans-serif" font-size="14" lengthAdjust="spacing" textLength="59" x="244.5" y="369.9048">{str} text</text><text fill="#000000" font-family="sans-serif" font-size="14" lengthAdjust="spacing" textLength="4" x="244.5" y="386.3931">&#160;</text><text fill="#000000" font-family="sans-serif" font-size="14" lengthAdjust="spacing" textLength="156" x="244.5" y="402.8814">{MessageStatus} status</text><text fill="#000000" font-family="sans-serif" font-size="14" lengthAdjust="spacing" textLength="107" x="244.5" y="419.3697">{str} fail_reason</text><line style="stroke:#181818;stroke-width:0.5;" x1="239.5" x2="405.5" y1="426.3228" y2="426.3228"/></g><!--SRC=[VL9BZiCW3Drp2fQTHNE9hhg8L4qEW1XmMpGfTC14bQhSVSmd8v0wpI86-ptxsGPilF73LLeBCtyoJjyqJjdkzzbyElKDA0Y3R6KC4c644EG59fGOGwKf3n91jzIV2B7t1B3OtZqeC4kFEKipauTgtRr3fzpCZrNXA2sLzRNYitfNhigXUELNG2yLhbp3cLz8E-LPZ0Q_6uRXeqzygg4j9L5NZWPdU9NC145d4bmolK1GWrhSodZ-1ILD5ID2dk6VCe95XTk0ErL6l-iwGxP6HTD17p34eBzkOaao-CPHbzAw41x8ohtRFR6pRQ1fVOBUGd0sDVGB]--></g></svg>