<?xml version="1.0" encoding="us-ascii" standalone="no"?><svg xmlns="http://www.w3.org/2000/svg" xmlns:xlink="http://www.w3.org/1999/xlink" contentStyleType="text/css" height="803px" preserveAspectRatio="none" style="width:1043px;height:803px;background:#FFFFFF;" version="1.1" viewBox="0 0 1043 803" width="1043px" zoomAndPan="magnify"><defs/><g><rect fill="none" height="266.75" style="stroke:#000000;stroke-width:1.5;" width="752.5" x="227" y="382.5938"/><line style="stroke:#181818;stroke-width:0.5;stroke-dasharray:5.0,5.0;" x1="55" x2="55" y1="67.4883" y2="724.9648"/><line style="stroke:#181818;stroke-width:0.5;stroke-dasharray:5.0,5.0;" x1="264" x2="264" y1="67.4883" y2="724.9648"/><line style="stroke:#181818;stroke-width:0.5;stroke-dasharray:5.0,5.0;" x1="710.5" x2="710.5" y1="67.4883" y2="724.9648"/><line style="stroke:#181818;stroke-width:0.5;stroke-dasharray:5.0,5.0;" x1="951.5" x2="951.5" y1="67.4883" y2="724.9648"/><line style="stroke:#181818;stroke-width:0.5;stroke-dasharray:5.0,5.0;" x1="1010.5" x2="1010.5" y1="67.4883" y2="724.9648"/><path d="M10,41 L101,41 C106,41 106,54.2441 106,54.2441 C106,54.2441 106,67.4883 101,67.4883 L10,67.4883 C5,67.4883 5,54.2441 5,54.2441 C5,54.2441 5,41 10,41 " fill="#E2E2F0" style="stroke:#181818;stroke-width:0.5;"/><path d="M101,41 C96,41 96,54.2441 96,54.2441 C96,67.4883 101,67.4883 101,67.4883 " fill="none" style="stroke:#181818;stroke-width:0.5;"/><text fill="#000000" font-family="sans-serif" font-size="14" lengthAdjust="spacing" textLength="81" x="10" y="59.5352">Task Queue</text><path d="M10,723.9648 L101,723.9648 C106,723.9648 106,737.209 106,737.209 C106,737.209 106,750.4531 101,750.4531 L10,750.4531 C5,750.4531 5,737.209 5,737.209 C5,737.209 5,723.9648 10,723.9648 " fill="#E2E2F0" style="stroke:#181818;stroke-width:0.5;"/><path d="M101,723.9648 C96,723.9648 96,737.209 96,737.209 C96,750.4531 101,750.4531 101,750.4531 " fill="none" style="stroke:#181818;stroke-width:0.5;"/><text fill="#000000" font-family="sans-serif" font-size="14" lengthAdjust="spacing" textLength="81" x="10" y="742.5">Task Queue</text><text fill="#000000" font-family="sans-serif" font-size="14" lengthAdjust="spacing" textLength="49" x="237" y="64.5352">Worker</text><ellipse cx="264.5" cy="35" fill="#E2E2F0" rx="12" ry="12" style="stroke:#181818;stroke-width:0.5;"/><line style="stroke:#181818;stroke-width:0.5;" x1="252.5" x2="276.5" y1="49" y2="49"/><text fill="#000000" font-family="sans-serif" font-size="14" lengthAdjust="spacing" textLength="49" x="237" y="737.5">Worker</text><ellipse cx="264.5" cy="756.4531" fill="#E2E2F0" rx="12" ry="12" style="stroke:#181818;stroke-width:0.5;"/><line style="stroke:#181818;stroke-width:0.5;" x1="252.5" x2="276.5" y1="770.4531" y2="770.4531"/><text fill="#000000" font-family="sans-serif" font-size="14" lengthAdjust="spacing" textLength="82" x="666.5" y="64.5352">Log Storage</text><path d="M692.5,15 C692.5,5 710.5,5 710.5,5 C710.5,5 728.5,5 728.5,15 L728.5,41 C728.5,51 710.5,51 710.5,51 C710.5,51 692.5,51 692.5,41 L692.5,15 " fill="#E2E2F0" style="stroke:#181818;stroke-width:1.5;"/><path d="M692.5,15 C692.5,25 710.5,25 710.5,25 C710.5,25 728.5,25 728.5,15 " fill="none" style="stroke:#181818;stroke-width:1.5;"/><text fill="#000000" font-family="sans-serif" font-size="14" lengthAdjust="spacing" textLength="82" x="666.5" y="737.5">Log Storage</text><path d="M692.5,750.4531 C692.5,740.4531 710.5,740.4531 710.5,740.4531 C710.5,740.4531 728.5,740.4531 728.5,750.4531 L728.5,776.4531 C728.5,786.4531 710.5,786.4531 710.5,786.4531 C710.5,786.4531 692.5,786.4531 692.5,776.4531 L692.5,750.4531 " fill="#E2E2F0" style="stroke:#181818;stroke-width:1.5;"/><path d="M692.5,750.4531 C692.5,760.4531 710.5,760.4531 710.5,760.4531 C710.5,760.4531 728.5,760.4531 728.5,750.4531 " fill="none" style="stroke:#181818;stroke-width:1.5;"/><text fill="#000000" font-family="sans-serif" font-size="14" lengthAdjust="spacing" textLength="18" x="939.5" y="64.5352">DB</text><path d="M933.5,15 C933.5,5 951.5,5 951.5,5 C951.5,5 969.5,5 969.5,15 L969.5,41 C969.5,51 951.5,51 951.5,51 C951.5,51 933.5,51 933.5,41 L933.5,15 " fill="#E2E2F0" style="stroke:#181818;stroke-width:1.5;"/><path d="M933.5,15 C933.5,25 951.5,25 951.5,25 C951.5,25 969.5,25 969.5,15 " fill="none" style="stroke:#181818;stroke-width:1.5;"/><text fill="#000000" font-family="sans-serif" font-size="14" lengthAdjust="spacing" textLength="18" x="939.5" y="737.5">DB</text><path d="M933.5,750.4531 C933.5,740.4531 951.5,740.4531 951.5,740.4531 C951.5,740.4531 969.5,740.4531 969.5,750.4531 L969.5,776.4531 C969.5,786.4531 951.5,786.4531 951.5,786.4531 C951.5,786.4531 933.5,786.4531 933.5,776.4531 L933.5,750.4531 " fill="#E2E2F0" style="stroke:#181818;stroke-width:1.5;"/><path d="M933.5,750.4531 C933.5,760.4531 951.5,760.4531 951.5,760.4531 C951.5,760.4531 969.5,760.4531 969.5,750.4531 " fill="none" style="stroke:#181818;stroke-width:1.5;"/><text fill="#000000" font-family="sans-serif" font-size="14" lengthAdjust="spacing" textLength="57" x="979.5" y="64.5352">Provider</text><ellipse cx="1011" cy="35" fill="#E2E2F0" rx="12" ry="12" style="stroke:#181818;stroke-width:0.5;"/><line style="stroke:#181818;stroke-width:0.5;" x1="999" x2="1023" y1="49" y2="49"/><text fill="#000000" font-family="sans-serif" font-size="14" lengthAdjust="spacing" textLength="57" x="979.5" y="737.5">Provider</text><ellipse cx="1011" cy="756.4531" fill="#E2E2F0" rx="12" ry="12" style="stroke:#181818;stroke-width:0.5;"/><line style="stroke:#181818;stroke-width:0.5;" x1="999" x2="1023" y1="770.4531" y2="770.4531"/><polygon fill="#181818" points="66.5,94.7988,56.5,98.7988,66.5,102.7988,62.5,98.7988" style="stroke:#181818;stroke-width:1.0;"/><line style="stroke:#181818;stroke-width:1.0;" x1="60.5" x2="263.5" y1="98.7988" y2="98.7988"/><text fill="#000000" font-family="sans-serif" font-size="13" font-weight="bold" lengthAdjust="spacing" textLength="9" x="72.5" y="94.0566">1</text><text fill="#000000" font-family="sans-serif" font-size="13" lengthAdjust="spacing" textLength="99" x="85.5" y="94.0566">Requests a task</text><polygon fill="#181818" points="252.5,124.1094,262.5,128.1094,252.5,132.1094,256.5,128.1094" style="stroke:#181818;stroke-width:1.0;"/><line style="stroke:#181818;stroke-width:1.0;" x1="55.5" x2="258.5" y1="128.1094" y2="128.1094"/><text fill="#000000" font-family="sans-serif" font-size="13" font-weight="bold" lengthAdjust="spacing" textLength="9" x="62.5" y="123.3672">2</text><text fill="#000000" font-family="sans-serif" font-size="13" lengthAdjust="spacing" textLength="172" x="75.5" y="123.3672">Returns task with record ID</text><polygon fill="#181818" points="698.5,153.4199,708.5,157.4199,698.5,161.4199,702.5,157.4199" style="stroke:#181818;stroke-width:1.0;"/><line style="stroke:#181818;stroke-width:1.0;" x1="264.5" x2="704.5" y1="157.4199" y2="157.4199"/><text fill="#000000" font-family="sans-serif" font-size="13" font-weight="bold" lengthAdjust="spacing" textLength="9" x="271.5" y="152.6777">3</text><text fill="#000000" font-family="sans-serif" font-size="13" lengthAdjust="spacing" textLength="227" x="284.5" y="152.6777">Saves event of task processing start</text><polygon fill="#181818" points="275.5,182.7305,265.5,186.7305,275.5,190.7305,271.5,186.7305" style="stroke:#181818;stroke-width:1.0;"/><line style="stroke:#181818;stroke-width:1.0;" x1="269.5" x2="709.5" y1="186.7305" y2="186.7305"/><text fill="#000000" font-family="sans-serif" font-size="13" font-weight="bold" lengthAdjust="spacing" textLength="9" x="281.5" y="181.9883">4</text><text fill="#000000" font-family="sans-serif" font-size="13" lengthAdjust="spacing" textLength="26" x="294.5" y="181.9883">ACK</text><polygon fill="#181818" points="939.5,212.041,949.5,216.041,939.5,220.041,943.5,216.041" style="stroke:#181818;stroke-width:1.0;"/><line style="stroke:#181818;stroke-width:1.0;" x1="264.5" x2="945.5" y1="216.041" y2="216.041"/><text fill="#000000" font-family="sans-serif" font-size="13" font-weight="bold" lengthAdjust="spacing" textLength="9" x="271.5" y="211.2988">5</text><text fill="#000000" font-family="sans-serif" font-size="13" lengthAdjust="spacing" textLength="215" x="284.5" y="211.2988">Requests record with ID from task</text><polygon fill="#181818" points="275.5,241.3516,265.5,245.3516,275.5,249.3516,271.5,245.3516" style="stroke:#181818;stroke-width:1.0;"/><line style="stroke:#181818;stroke-width:1.0;" x1="269.5" x2="950.5" y1="245.3516" y2="245.3516"/><text fill="#000000" font-family="sans-serif" font-size="13" font-weight="bold" lengthAdjust="spacing" textLength="9" x="281.5" y="240.6094">6</text><text fill="#000000" font-family="sans-serif" font-size="13" lengthAdjust="spacing" textLength="92" x="294.5" y="240.6094">Returns record</text><line style="stroke:#181818;stroke-width:1.0;" x1="264.5" x2="306.5" y1="274.6621" y2="274.6621"/><line style="stroke:#181818;stroke-width:1.0;" x1="306.5" x2="306.5" y1="274.6621" y2="287.6621"/><line style="stroke:#181818;stroke-width:1.0;" x1="265.5" x2="306.5" y1="287.6621" y2="287.6621"/><polygon fill="#181818" points="275.5,283.6621,265.5,287.6621,275.5,291.6621,271.5,287.6621" style="stroke:#181818;stroke-width:1.0;"/><text fill="#000000" font-family="sans-serif" font-size="13" font-weight="bold" lengthAdjust="spacing" textLength="9" x="271.5" y="269.9199">7</text><text fill="#000000" font-family="sans-serif" font-size="13" lengthAdjust="spacing" textLength="282" x="284.5" y="269.9199">Determines provider for sending from record</text><polygon fill="#181818" points="999,323.6279,1009,327.6279,999,331.6279,1003,327.6279" style="stroke:#181818;stroke-width:1.0;"/><line style="stroke:#181818;stroke-width:1.0;" x1="264.5" x2="1005" y1="327.6279" y2="327.6279"/><text fill="#000000" font-family="sans-serif" font-size="13" font-weight="bold" lengthAdjust="spacing" textLength="9" x="271.5" y="322.8857">8</text><text fill="#000000" font-family="sans-serif" font-size="13" lengthAdjust="spacing" textLength="159" x="284.5" y="322.8857">Requests message status</text><path d="M23,300.6621 L23,340.6621 L259,340.6621 L259,310.6621 L249,300.6621 L23,300.6621 " fill="#FEFFDD" style="stroke:#181818;stroke-width:0.5;"/><path d="M249,300.6621 L249,310.6621 L259,310.6621 L249,300.6621 " fill="#FEFFDD" style="stroke:#181818;stroke-width:0.5;"/><text fill="#000000" font-family="sans-serif" font-size="13" lengthAdjust="spacing" textLength="88" x="29" y="318.2305">Using internal</text><text fill="#000000" font-family="sans-serif" font-size="13" lengthAdjust="spacing" textLength="215" x="29" y="333.541">provider identifier from the record</text><polygon fill="#181818" points="275.5,363.5938,265.5,367.5938,275.5,371.5938,271.5,367.5938" style="stroke:#181818;stroke-width:1.0;"/><line style="stroke:#181818;stroke-width:1.0;" x1="269.5" x2="1010" y1="367.5938" y2="367.5938"/><text fill="#000000" font-family="sans-serif" font-size="13" font-weight="bold" lengthAdjust="spacing" textLength="9" x="281.5" y="362.8516">9</text><text fill="#000000" font-family="sans-serif" font-size="13" lengthAdjust="spacing" textLength="98" x="294.5" y="362.8516">Sends response</text><path d="M227,382.5938 L289,382.5938 L289,389.9043 L279,399.9043 L227,399.9043 L227,382.5938 " fill="#EEEEEE" style="stroke:#000000;stroke-width:1.5;"/><rect fill="none" height="266.75" style="stroke:#000000;stroke-width:1.5;" width="752.5" x="227" y="382.5938"/><text fill="#000000" font-family="sans-serif" font-size="13" font-weight="bold" lengthAdjust="spacing" textLength="17" x="242" y="396.1621">alt</text><text fill="#000000" font-family="sans-serif" font-size="11" font-weight="bold" lengthAdjust="spacing" textLength="111" x="304" y="395.2285">[Message delivered]</text><polygon fill="#181818" points="698.5,417.2148,708.5,421.2148,698.5,425.2148,702.5,421.2148" style="stroke:#181818;stroke-width:1.0;"/><line style="stroke:#181818;stroke-width:1.0;" x1="264.5" x2="704.5" y1="421.2148" y2="421.2148"/><text fill="#000000" font-family="sans-serif" font-size="13" font-weight="bold" lengthAdjust="spacing" textLength="18" x="271.5" y="416.4727">10</text><text fill="#000000" font-family="sans-serif" font-size="13" lengthAdjust="spacing" textLength="203" x="293.5" y="416.4727">Saves event "message delivered"</text><polygon fill="#181818" points="275.5,446.5254,265.5,450.5254,275.5,454.5254,271.5,450.5254" style="stroke:#181818;stroke-width:1.0;"/><line style="stroke:#181818;stroke-width:1.0;" x1="269.5" x2="709.5" y1="450.5254" y2="450.5254"/><text fill="#000000" font-family="sans-serif" font-size="13" font-weight="bold" lengthAdjust="spacing" textLength="18" x="281.5" y="445.7832">11</text><text fill="#000000" font-family="sans-serif" font-size="13" lengthAdjust="spacing" textLength="26" x="303.5" y="445.7832">ACK</text><polygon fill="#181818" points="939.5,475.8359,949.5,479.8359,939.5,483.8359,943.5,479.8359" style="stroke:#181818;stroke-width:1.0;"/><line style="stroke:#181818;stroke-width:1.0;" x1="264.5" x2="945.5" y1="479.8359" y2="479.8359"/><text fill="#000000" font-family="sans-serif" font-size="13" font-weight="bold" lengthAdjust="spacing" textLength="18" x="271.5" y="475.0938">12</text><text fill="#000000" font-family="sans-serif" font-size="13" lengthAdjust="spacing" textLength="282" x="293.5" y="475.0938">Updates record, indicating status "Delivered"</text><polygon fill="#181818" points="275.5,505.1465,265.5,509.1465,275.5,513.1465,271.5,509.1465" style="stroke:#181818;stroke-width:1.0;"/><line style="stroke:#181818;stroke-width:1.0;" x1="269.5" x2="950.5" y1="509.1465" y2="509.1465"/><text fill="#000000" font-family="sans-serif" font-size="13" font-weight="bold" lengthAdjust="spacing" textLength="18" x="281.5" y="504.4043">13</text><text fill="#000000" font-family="sans-serif" font-size="13" lengthAdjust="spacing" textLength="26" x="303.5" y="504.4043">ACK</text><line style="stroke:#000000;stroke-width:1.0;stroke-dasharray:2.0,2.0;" x1="227" x2="979.5" y1="518.1465" y2="518.1465"/><text fill="#000000" font-family="sans-serif" font-size="11" font-weight="bold" lengthAdjust="spacing" textLength="284" x="232" y="528.7813">[Message not delivered, problem on provider side]</text><polygon fill="#181818" points="698.5,549.4121,708.5,553.4121,698.5,557.4121,702.5,553.4121" style="stroke:#181818;stroke-width:1.0;"/><line style="stroke:#181818;stroke-width:1.0;" x1="264.5" x2="704.5" y1="553.4121" y2="553.4121"/><text fill="#000000" font-family="sans-serif" font-size="13" font-weight="bold" lengthAdjust="spacing" textLength="18" x="271.5" y="548.6699">14</text><text fill="#000000" font-family="sans-serif" font-size="13" lengthAdjust="spacing" textLength="400" x="293.5" y="548.6699">Saves event "Message not delivered" with full provider response</text><polygon fill="#181818" points="275.5,578.7227,265.5,582.7227,275.5,586.7227,271.5,582.7227" style="stroke:#181818;stroke-width:1.0;"/><line style="stroke:#181818;stroke-width:1.0;" x1="269.5" x2="709.5" y1="582.7227" y2="582.7227"/><text fill="#000000" font-family="sans-serif" font-size="13" font-weight="bold" lengthAdjust="spacing" textLength="18" x="281.5" y="577.9805">15</text><text fill="#000000" font-family="sans-serif" font-size="13" lengthAdjust="spacing" textLength="26" x="303.5" y="577.9805">ACK</text><polygon fill="#181818" points="939.5,608.0332,949.5,612.0332,939.5,616.0332,943.5,612.0332" style="stroke:#181818;stroke-width:1.0;"/><line style="stroke:#181818;stroke-width:1.0;" x1="264.5" x2="945.5" y1="612.0332" y2="612.0332"/><text fill="#000000" font-family="sans-serif" font-size="13" font-weight="bold" lengthAdjust="spacing" textLength="18" x="271.5" y="607.291">16</text><text fill="#000000" font-family="sans-serif" font-size="13" lengthAdjust="spacing" textLength="641" x="293.5" y="607.291">Updates record, indicating status "Not Delivered" and filling "Reason" field with full provider response</text><polygon fill="#181818" points="275.5,637.3438,265.5,641.3438,275.5,645.3438,271.5,641.3438" style="stroke:#181818;stroke-width:1.0;"/><line style="stroke:#181818;stroke-width:1.0;" x1="269.5" x2="950.5" y1="641.3438" y2="641.3438"/><text fill="#000000" font-family="sans-serif" font-size="13" font-weight="bold" lengthAdjust="spacing" textLength="18" x="281.5" y="636.6016">17</text><text fill="#000000" font-family="sans-serif" font-size="13" lengthAdjust="spacing" textLength="26" x="303.5" y="636.6016">ACK</text><polygon fill="#181818" points="66.5,673.6543,56.5,677.6543,66.5,681.6543,62.5,677.6543" style="stroke:#181818;stroke-width:1.0;"/><line style="stroke:#181818;stroke-width:1.0;" x1="60.5" x2="263.5" y1="677.6543" y2="677.6543"/><text fill="#000000" font-family="sans-serif" font-size="13" font-weight="bold" lengthAdjust="spacing" textLength="18" x="72.5" y="672.9121">18</text><text fill="#000000" font-family="sans-serif" font-size="13" lengthAdjust="spacing" textLength="154" x="94.5" y="672.9121">Reports task completion</text><polygon fill="#181818" points="252.5,702.9648,262.5,706.9648,252.5,710.9648,256.5,706.9648" style="stroke:#181818;stroke-width:1.0;"/><line style="stroke:#181818;stroke-width:1.0;" x1="55.5" x2="258.5" y1="706.9648" y2="706.9648"/><text fill="#000000" font-family="sans-serif" font-size="13" font-weight="bold" lengthAdjust="spacing" textLength="18" x="62.5" y="702.2227">19</text><text fill="#000000" font-family="sans-serif" font-size="13" lengthAdjust="spacing" textLength="26" x="84.5" y="702.2227">ACK</text><!--SRC=[hLFTJjqm3BxFKrYvXXT0QD96Rz3Oj750kqvFt4D46dUnUn1lZzEqfsMmJPFMYoXrxE_7JjmebCQ-nMpCpn5717ld-16-bxq5np153IO9yWm_A3zYBk6dQMUy4zSwrh8REi1EABj3hOjquFMu-LHYlbs0xBTCn-0nJxd3_BDek3oVyI_W5ZN4mk10LDYSSFvXao1ZJZoTmbEG1yYuf-pXkZ4rfsGNDHUmSqTamAEA0EfgYNBlaJca0x2uB4kHQgX57wy-Ru1ykz4qCqsirmrqcVggSiMe-LLYJT-0BHuQ5CnzIBYs0ZhAm9Xy4JO1lwbUKZU2UdMY0oXEP6IJI10YTcBk9uCXAKzo4So9HXUTI1SAuoJ_0HSc9OU2i76pKkxqj3ZYWHAZCIuAV9dPFSPmn8pUW7v_6eBjVosnsvfNCtYDLVfwF-ZzmgMlPshFXxsJUPJQ0B3Dxt1BVK75gBTp4QvkLoLdnMqRiGTAwrXOrx_RUXVGrelIZJ6kUASE_bVRNvLtjGvE9zc564kAlKN7bAm6CFf_a7JgMFBlljE1iipFS4_z4542fRVljK2y0000]--></g></svg>