<?xml version="1.0" encoding="us-ascii" standalone="no"?><svg xmlns="http://www.w3.org/2000/svg" xmlns:xlink="http://www.w3.org/1999/xlink" contentStyleType="text/css" height="647px" preserveAspectRatio="none" style="width:916px;height:647px;background:#FFFFFF;" version="1.1" viewBox="0 0 916 647" width="916px" zoomAndPan="magnify"><defs/><g><line style="stroke:#181818;stroke-width:0.5;stroke-dasharray:5.0,5.0;" x1="59" x2="59" y1="67.4883" y2="569.457"/><line style="stroke:#181818;stroke-width:0.5;stroke-dasharray:5.0,5.0;" x1="395.5" x2="395.5" y1="67.4883" y2="569.457"/><line style="stroke:#181818;stroke-width:0.5;stroke-dasharray:5.0,5.0;" x1="707" x2="707" y1="67.4883" y2="569.457"/><line style="stroke:#181818;stroke-width:0.5;stroke-dasharray:5.0,5.0;" x1="824" x2="824" y1="67.4883" y2="569.457"/><line style="stroke:#181818;stroke-width:0.5;stroke-dasharray:5.0,5.0;" x1="883" x2="883" y1="67.4883" y2="569.457"/><path d="M10,41 L108,41 C113,41 113,54.2441 113,54.2441 C113,54.2441 113,67.4883 108,67.4883 L10,67.4883 C5,67.4883 5,54.2441 5,54.2441 C5,54.2441 5,41 10,41 " fill="#E2E2F0" style="stroke:#181818;stroke-width:0.5;"/><path d="M108,41 C103,41 103,54.2441 103,54.2441 C103,67.4883 108,67.4883 108,67.4883 " fill="none" style="stroke:#181818;stroke-width:0.5;"/><text fill="#000000" font-family="sans-serif" font-size="14" lengthAdjust="spacing" textLength="88" x="10" y="59.5352">Tasks Queue</text><path d="M10,568.457 L108,568.457 C113,568.457 113,581.7012 113,581.7012 C113,581.7012 113,594.9453 108,594.9453 L10,594.9453 C5,594.9453 5,581.7012 5,581.7012 C5,581.7012 5,568.457 10,568.457 " fill="#E2E2F0" style="stroke:#181818;stroke-width:0.5;"/><path d="M108,568.457 C103,568.457 103,581.7012 103,581.7012 C103,594.9453 108,594.9453 108,594.9453 " fill="none" style="stroke:#181818;stroke-width:0.5;"/><text fill="#000000" font-family="sans-serif" font-size="14" lengthAdjust="spacing" textLength="88" x="10" y="586.9922">Tasks Queue</text><text fill="#000000" font-family="sans-serif" font-size="14" lengthAdjust="spacing" textLength="49" x="368.5" y="64.5352">Worker</text><ellipse cx="396" cy="35" fill="#E2E2F0" rx="12" ry="12" style="stroke:#181818;stroke-width:0.5;"/><line style="stroke:#181818;stroke-width:0.5;" x1="384" x2="408" y1="49" y2="49"/><text fill="#000000" font-family="sans-serif" font-size="14" lengthAdjust="spacing" textLength="49" x="368.5" y="581.9922">Worker</text><ellipse cx="396" cy="600.9453" fill="#E2E2F0" rx="12" ry="12" style="stroke:#181818;stroke-width:0.5;"/><line style="stroke:#181818;stroke-width:0.5;" x1="384" x2="408" y1="614.9453" y2="614.9453"/><text fill="#000000" font-family="sans-serif" font-size="14" lengthAdjust="spacing" textLength="82" x="663" y="64.5352">Log Storage</text><path d="M689,15 C689,5 707,5 707,5 C707,5 725,5 725,15 L725,41 C725,51 707,51 707,51 C707,51 689,51 689,41 L689,15 " fill="#E2E2F0" style="stroke:#181818;stroke-width:1.5;"/><path d="M689,15 C689,25 707,25 707,25 C707,25 725,25 725,15 " fill="none" style="stroke:#181818;stroke-width:1.5;"/><text fill="#000000" font-family="sans-serif" font-size="14" lengthAdjust="spacing" textLength="82" x="663" y="581.9922">Log Storage</text><path d="M689,594.9453 C689,584.9453 707,584.9453 707,584.9453 C707,584.9453 725,584.9453 725,594.9453 L725,620.9453 C725,630.9453 707,630.9453 707,630.9453 C707,630.9453 689,630.9453 689,620.9453 L689,594.9453 " fill="#E2E2F0" style="stroke:#181818;stroke-width:1.5;"/><path d="M689,594.9453 C689,604.9453 707,604.9453 707,604.9453 C707,604.9453 725,604.9453 725,594.9453 " fill="none" style="stroke:#181818;stroke-width:1.5;"/><text fill="#000000" font-family="sans-serif" font-size="14" lengthAdjust="spacing" textLength="18" x="812" y="64.5352">DB</text><path d="M806,15 C806,5 824,5 824,5 C824,5 842,5 842,15 L842,41 C842,51 824,51 824,51 C824,51 806,51 806,41 L806,15 " fill="#E2E2F0" style="stroke:#181818;stroke-width:1.5;"/><path d="M806,15 C806,25 824,25 824,25 C824,25 842,25 842,15 " fill="none" style="stroke:#181818;stroke-width:1.5;"/><text fill="#000000" font-family="sans-serif" font-size="14" lengthAdjust="spacing" textLength="18" x="812" y="581.9922">DB</text><path d="M806,594.9453 C806,584.9453 824,584.9453 824,584.9453 C824,584.9453 842,584.9453 842,594.9453 L842,620.9453 C842,630.9453 824,630.9453 824,630.9453 C824,630.9453 806,630.9453 806,620.9453 L806,594.9453 " fill="#E2E2F0" style="stroke:#181818;stroke-width:1.5;"/><path d="M806,594.9453 C806,604.9453 824,604.9453 824,604.9453 C824,604.9453 842,604.9453 842,594.9453 " fill="none" style="stroke:#181818;stroke-width:1.5;"/><text fill="#000000" font-family="sans-serif" font-size="14" lengthAdjust="spacing" textLength="57" x="852" y="64.5352">Provider</text><ellipse cx="883.5" cy="35" fill="#E2E2F0" rx="12" ry="12" style="stroke:#181818;stroke-width:0.5;"/><line style="stroke:#181818;stroke-width:0.5;" x1="871.5" x2="895.5" y1="49" y2="49"/><text fill="#000000" font-family="sans-serif" font-size="14" lengthAdjust="spacing" textLength="57" x="852" y="581.9922">Provider</text><ellipse cx="883.5" cy="600.9453" fill="#E2E2F0" rx="12" ry="12" style="stroke:#181818;stroke-width:0.5;"/><line style="stroke:#181818;stroke-width:0.5;" x1="871.5" x2="895.5" y1="614.9453" y2="614.9453"/><polygon fill="#181818" points="70,94.7988,60,98.7988,70,102.7988,66,98.7988" style="stroke:#181818;stroke-width:1.0;"/><line style="stroke:#181818;stroke-width:1.0;" x1="64" x2="395" y1="98.7988" y2="98.7988"/><text fill="#000000" font-family="sans-serif" font-size="13" font-weight="bold" lengthAdjust="spacing" textLength="9" x="76" y="94.0566">1</text><text fill="#000000" font-family="sans-serif" font-size="13" lengthAdjust="spacing" textLength="155" x="89" y="94.0566">Get next task and lock it</text><polygon fill="#181818" points="384,124.1094,394,128.1094,384,132.1094,388,128.1094" style="stroke:#181818;stroke-width:1.0;"/><line style="stroke:#181818;stroke-width:1.0;" x1="59" x2="390" y1="128.1094" y2="128.1094"/><text fill="#000000" font-family="sans-serif" font-size="13" font-weight="bold" lengthAdjust="spacing" textLength="9" x="66" y="123.3672">2</text><text fill="#000000" font-family="sans-serif" font-size="13" lengthAdjust="spacing" textLength="172" x="79" y="123.3672">Returns task with record ID</text><polygon fill="#181818" points="695,153.4199,705,157.4199,695,161.4199,699,157.4199" style="stroke:#181818;stroke-width:1.0;"/><line style="stroke:#181818;stroke-width:1.0;" x1="396" x2="701" y1="157.4199" y2="157.4199"/><text fill="#000000" font-family="sans-serif" font-size="13" font-weight="bold" lengthAdjust="spacing" textLength="9" x="403" y="152.6777">3</text><text fill="#000000" font-family="sans-serif" font-size="13" lengthAdjust="spacing" textLength="182" x="416" y="152.6777">Save "Start processing" event</text><polygon fill="#181818" points="407,182.7305,397,186.7305,407,190.7305,403,186.7305" style="stroke:#181818;stroke-width:1.0;"/><line style="stroke:#181818;stroke-width:1.0;" x1="401" x2="706" y1="186.7305" y2="186.7305"/><text fill="#000000" font-family="sans-serif" font-size="13" font-weight="bold" lengthAdjust="spacing" textLength="9" x="413" y="181.9883">4</text><text fill="#000000" font-family="sans-serif" font-size="13" lengthAdjust="spacing" textLength="26" x="426" y="181.9883">ACK</text><polygon fill="#181818" points="812,212.041,822,216.041,812,220.041,816,216.041" style="stroke:#181818;stroke-width:1.0;"/><line style="stroke:#181818;stroke-width:1.0;" x1="396" x2="818" y1="216.041" y2="216.041"/><text fill="#000000" font-family="sans-serif" font-size="13" font-weight="bold" lengthAdjust="spacing" textLength="9" x="403" y="211.2988">5</text><text fill="#000000" font-family="sans-serif" font-size="13" lengthAdjust="spacing" textLength="114" x="416" y="211.2988">Get record with ID</text><polygon fill="#181818" points="407,241.3516,397,245.3516,407,249.3516,403,245.3516" style="stroke:#181818;stroke-width:1.0;"/><line style="stroke:#181818;stroke-width:1.0;" x1="401" x2="823" y1="245.3516" y2="245.3516"/><text fill="#000000" font-family="sans-serif" font-size="13" font-weight="bold" lengthAdjust="spacing" textLength="9" x="413" y="240.6094">6</text><text fill="#000000" font-family="sans-serif" font-size="13" lengthAdjust="spacing" textLength="92" x="426" y="240.6094">Returns record</text><line style="stroke:#181818;stroke-width:1.0;" x1="396" x2="438" y1="274.6621" y2="274.6621"/><line style="stroke:#181818;stroke-width:1.0;" x1="438" x2="438" y1="274.6621" y2="287.6621"/><line style="stroke:#181818;stroke-width:1.0;" x1="397" x2="438" y1="287.6621" y2="287.6621"/><polygon fill="#181818" points="407,283.6621,397,287.6621,407,291.6621,403,287.6621" style="stroke:#181818;stroke-width:1.0;"/><text fill="#000000" font-family="sans-serif" font-size="13" font-weight="bold" lengthAdjust="spacing" textLength="9" x="403" y="269.9199">7</text><text fill="#000000" font-family="sans-serif" font-size="13" lengthAdjust="spacing" textLength="284" x="416" y="269.9199">Get provider instance using channel manager</text><polygon fill="#181818" points="812,312.9727,822,316.9727,812,320.9727,816,316.9727" style="stroke:#181818;stroke-width:1.0;"/><line style="stroke:#181818;stroke-width:1.0;" x1="396" x2="818" y1="316.9727" y2="316.9727"/><text fill="#000000" font-family="sans-serif" font-size="13" font-weight="bold" lengthAdjust="spacing" textLength="9" x="403" y="312.2305">8</text><text fill="#000000" font-family="sans-serif" font-size="13" lengthAdjust="spacing" textLength="243" x="416" y="312.2305">Update record, set status "In progress"</text><polygon fill="#181818" points="407,342.2832,397,346.2832,407,350.2832,403,346.2832" style="stroke:#181818;stroke-width:1.0;"/><line style="stroke:#181818;stroke-width:1.0;" x1="401" x2="823" y1="346.2832" y2="346.2832"/><text fill="#000000" font-family="sans-serif" font-size="13" font-weight="bold" lengthAdjust="spacing" textLength="9" x="413" y="341.541">9</text><text fill="#000000" font-family="sans-serif" font-size="13" lengthAdjust="spacing" textLength="26" x="426" y="341.541">ACK</text><polygon fill="#181818" points="871.5,371.5938,881.5,375.5938,871.5,379.5938,875.5,375.5938" style="stroke:#181818;stroke-width:1.0;"/><line style="stroke:#181818;stroke-width:1.0;" x1="396" x2="877.5" y1="375.5938" y2="375.5938"/><text fill="#000000" font-family="sans-serif" font-size="13" font-weight="bold" lengthAdjust="spacing" textLength="18" x="403" y="370.8516">10</text><text fill="#000000" font-family="sans-serif" font-size="13" lengthAdjust="spacing" textLength="89" x="425" y="370.8516">Send message</text><polygon fill="#181818" points="407,400.9043,397,404.9043,407,408.9043,403,404.9043" style="stroke:#181818;stroke-width:1.0;"/><line style="stroke:#181818;stroke-width:1.0;" x1="401" x2="882.5" y1="404.9043" y2="404.9043"/><text fill="#000000" font-family="sans-serif" font-size="13" font-weight="bold" lengthAdjust="spacing" textLength="18" x="413" y="400.1621">11</text><text fill="#000000" font-family="sans-serif" font-size="13" lengthAdjust="spacing" textLength="251" x="435" y="400.1621">Returns inner message ID from provider</text><polygon fill="#181818" points="812,430.2148,822,434.2148,812,438.2148,816,434.2148" style="stroke:#181818;stroke-width:1.0;"/><line style="stroke:#181818;stroke-width:1.0;" x1="396" x2="818" y1="434.2148" y2="434.2148"/><text fill="#000000" font-family="sans-serif" font-size="13" font-weight="bold" lengthAdjust="spacing" textLength="18" x="403" y="429.4727">12</text><text fill="#000000" font-family="sans-serif" font-size="13" lengthAdjust="spacing" textLength="382" x="425" y="429.4727">Update record, set status "At provider", set inner message ID</text><polygon fill="#181818" points="407,459.5254,397,463.5254,407,467.5254,403,463.5254" style="stroke:#181818;stroke-width:1.0;"/><line style="stroke:#181818;stroke-width:1.0;" x1="401" x2="823" y1="463.5254" y2="463.5254"/><text fill="#000000" font-family="sans-serif" font-size="13" font-weight="bold" lengthAdjust="spacing" textLength="18" x="413" y="458.7832">13</text><text fill="#000000" font-family="sans-serif" font-size="13" lengthAdjust="spacing" textLength="26" x="435" y="458.7832">ACK</text><polygon fill="#181818" points="70,488.8359,60,492.8359,70,496.8359,66,492.8359" style="stroke:#181818;stroke-width:1.0;"/><line style="stroke:#181818;stroke-width:1.0;" x1="64" x2="395" y1="492.8359" y2="492.8359"/><text fill="#000000" font-family="sans-serif" font-size="13" font-weight="bold" lengthAdjust="spacing" textLength="18" x="76" y="488.0938">14</text><text fill="#000000" font-family="sans-serif" font-size="13" lengthAdjust="spacing" textLength="140" x="98" y="488.0938">Set task status "Done"</text><polygon fill="#181818" points="70,518.1465,60,522.1465,70,526.1465,66,522.1465" style="stroke:#181818;stroke-width:1.0;"/><line style="stroke:#181818;stroke-width:1.0;" x1="64" x2="395" y1="522.1465" y2="522.1465"/><text fill="#000000" font-family="sans-serif" font-size="13" font-weight="bold" lengthAdjust="spacing" textLength="18" x="76" y="517.4043">15</text><text fill="#000000" font-family="sans-serif" font-size="13" lengthAdjust="spacing" textLength="291" x="98" y="517.4043">Creates task to check message delivery status</text><polygon fill="#181818" points="384,547.457,394,551.457,384,555.457,388,551.457" style="stroke:#181818;stroke-width:1.0;"/><line style="stroke:#181818;stroke-width:1.0;" x1="59" x2="390" y1="551.457" y2="551.457"/><text fill="#000000" font-family="sans-serif" font-size="13" font-weight="bold" lengthAdjust="spacing" textLength="18" x="66" y="546.7148">16</text><text fill="#000000" font-family="sans-serif" font-size="13" lengthAdjust="spacing" textLength="26" x="88" y="546.7148">ACK</text><!--SRC=[ZLBDJiCm3BxtAQoSsGjC26bi4fhW01J4EMrDYROcmt4wzlOuRKBBne5Rato_hdLWPqDN8HN5Py20e5wqttbuYWS5siDmNQ1bmoTuSxH3YjV7uQjeDEjAU-4zk1PATgJRaRTthP-UDxVnhgcoa7earvi6QS0UqY67k5ua_INS8OF5BmQMNA1j8yBr3WmdwEBc1_gC7CZw4Naq_064jQC6jfjYn4HqpBM4KlUIkMHD7DrhzDxOLW7s4Z2Z9SQ8NgtlPmfDDSPAweFJP26a2CXXHj2CFI-MUuEndhMj4KAC0VM7jXRtq6ahuwGpxzU3Z1MJyXLu4H8s1mzgQwDcIr97dGNwtI4xooHGPje9GPncb0cGcnY9H1afXU6TN3VzkdzdN4szrVXohln7yekzA36jH9RTE8lg4hScb21fATZ9Q57M9tirk3SzqYcfNEwKU7y3]--></g></svg>