<?xml version="1.0" encoding="us-ascii" standalone="no"?><svg xmlns="http://www.w3.org/2000/svg" xmlns:xlink="http://www.w3.org/1999/xlink" contentStyleType="text/css" height="593px" preserveAspectRatio="none" style="width:797px;height:593px;background:#FFFFFF;" version="1.1" viewBox="0 0 797 593" width="797px" zoomAndPan="magnify"><defs/><g><rect fill="none" height="266.75" style="stroke:#000000;stroke-width:1.5;" width="780.5" x="10" y="228.7305"/><rect fill="#FFC0CB" height="102.8867" style="stroke:none;stroke-width:1.0;" width="780.5" x="10" y="392.5938"/><line style="stroke:#181818;stroke-width:0.5;stroke-dasharray:5.0,5.0;" x1="38" x2="38" y1="81.4883" y2="512.4805"/><line style="stroke:#181818;stroke-width:0.5;stroke-dasharray:5.0,5.0;" x1="395" x2="395" y1="81.4883" y2="512.4805"/><line style="stroke:#181818;stroke-width:0.5;stroke-dasharray:5.0,5.0;" x1="579.5" x2="579.5" y1="81.4883" y2="512.4805"/><line style="stroke:#181818;stroke-width:0.5;stroke-dasharray:5.0,5.0;" x1="651.5" x2="651.5" y1="81.4883" y2="512.4805"/><line style="stroke:#181818;stroke-width:0.5;stroke-dasharray:5.0,5.0;" x1="729.5" x2="729.5" y1="81.4883" y2="512.4805"/><text fill="#000000" font-family="sans-serif" font-size="14" lengthAdjust="spacing" textLength="31" x="20" y="78.5352">User</text><ellipse cx="38.5" cy="13.5" fill="#E2E2F0" rx="8" ry="8" style="stroke:#181818;stroke-width:0.5;"/><path d="M38.5,21.5 L38.5,48.5 M25.5,29.5 L51.5,29.5 M38.5,48.5 L25.5,63.5 M38.5,48.5 L51.5,63.5 " fill="none" style="stroke:#181818;stroke-width:0.5;"/><text fill="#000000" font-family="sans-serif" font-size="14" lengthAdjust="spacing" textLength="31" x="20" y="525.0156">User</text><ellipse cx="38.5" cy="536.4688" fill="#E2E2F0" rx="8" ry="8" style="stroke:#181818;stroke-width:0.5;"/><path d="M38.5,544.4688 L38.5,571.4688 M25.5,552.4688 L51.5,552.4688 M38.5,571.4688 L25.5,586.4688 M38.5,571.4688 L51.5,586.4688 " fill="none" style="stroke:#181818;stroke-width:0.5;"/><text fill="#000000" font-family="sans-serif" font-size="14" lengthAdjust="spacing" textLength="51" x="367" y="78.5352">WebAPI</text><ellipse cx="395.5" cy="49" fill="#E2E2F0" rx="12" ry="12" style="stroke:#181818;stroke-width:0.5;"/><line style="stroke:#181818;stroke-width:0.5;" x1="383.5" x2="407.5" y1="63" y2="63"/><text fill="#000000" font-family="sans-serif" font-size="14" lengthAdjust="spacing" textLength="51" x="367" y="525.0156">WebAPI</text><ellipse cx="395.5" cy="543.9688" fill="#E2E2F0" rx="12" ry="12" style="stroke:#181818;stroke-width:0.5;"/><line style="stroke:#181818;stroke-width:0.5;" x1="383.5" x2="407.5" y1="557.9688" y2="557.9688"/><text fill="#000000" font-family="sans-serif" font-size="14" lengthAdjust="spacing" textLength="82" x="535.5" y="78.5352">Log Storage</text><path d="M561.5,29 C561.5,19 579.5,19 579.5,19 C579.5,19 597.5,19 597.5,29 L597.5,55 C597.5,65 579.5,65 579.5,65 C579.5,65 561.5,65 561.5,55 L561.5,29 " fill="#E2E2F0" style="stroke:#181818;stroke-width:1.5;"/><path d="M561.5,29 C561.5,39 579.5,39 579.5,39 C579.5,39 597.5,39 597.5,29 " fill="none" style="stroke:#181818;stroke-width:1.5;"/><text fill="#000000" font-family="sans-serif" font-size="14" lengthAdjust="spacing" textLength="82" x="535.5" y="525.0156">Log Storage</text><path d="M561.5,537.9688 C561.5,527.9688 579.5,527.9688 579.5,527.9688 C579.5,527.9688 597.5,527.9688 597.5,537.9688 L597.5,563.9688 C597.5,573.9688 579.5,573.9688 579.5,573.9688 C579.5,573.9688 561.5,573.9688 561.5,563.9688 L561.5,537.9688 " fill="#E2E2F0" style="stroke:#181818;stroke-width:1.5;"/><path d="M561.5,537.9688 C561.5,547.9688 579.5,547.9688 579.5,547.9688 C579.5,547.9688 597.5,547.9688 597.5,537.9688 " fill="none" style="stroke:#181818;stroke-width:1.5;"/><text fill="#000000" font-family="sans-serif" font-size="14" lengthAdjust="spacing" textLength="18" x="639.5" y="78.5352">DB</text><path d="M633.5,29 C633.5,19 651.5,19 651.5,19 C651.5,19 669.5,19 669.5,29 L669.5,55 C669.5,65 651.5,65 651.5,65 C651.5,65 633.5,65 633.5,55 L633.5,29 " fill="#E2E2F0" style="stroke:#181818;stroke-width:1.5;"/><path d="M633.5,29 C633.5,39 651.5,39 651.5,39 C651.5,39 669.5,39 669.5,29 " fill="none" style="stroke:#181818;stroke-width:1.5;"/><text fill="#000000" font-family="sans-serif" font-size="14" lengthAdjust="spacing" textLength="18" x="639.5" y="525.0156">DB</text><path d="M633.5,537.9688 C633.5,527.9688 651.5,527.9688 651.5,527.9688 C651.5,527.9688 669.5,527.9688 669.5,537.9688 L669.5,563.9688 C669.5,573.9688 651.5,573.9688 651.5,573.9688 C651.5,573.9688 633.5,573.9688 633.5,563.9688 L633.5,537.9688 " fill="#E2E2F0" style="stroke:#181818;stroke-width:1.5;"/><path d="M633.5,537.9688 C633.5,547.9688 651.5,547.9688 651.5,547.9688 C651.5,547.9688 669.5,547.9688 669.5,537.9688 " fill="none" style="stroke:#181818;stroke-width:1.5;"/><path d="M684.5,55 L775.5,55 C780.5,55 780.5,68.2441 780.5,68.2441 C780.5,68.2441 780.5,81.4883 775.5,81.4883 L684.5,81.4883 C679.5,81.4883 679.5,68.2441 679.5,68.2441 C679.5,68.2441 679.5,55 684.5,55 " fill="#E2E2F0" style="stroke:#181818;stroke-width:0.5;"/><path d="M775.5,55 C770.5,55 770.5,68.2441 770.5,68.2441 C770.5,81.4883 775.5,81.4883 775.5,81.4883 " fill="none" style="stroke:#181818;stroke-width:0.5;"/><text fill="#000000" font-family="sans-serif" font-size="14" lengthAdjust="spacing" textLength="81" x="684.5" y="73.5352">Task Queue</text><path d="M684.5,511.4805 L775.5,511.4805 C780.5,511.4805 780.5,524.7246 780.5,524.7246 C780.5,524.7246 780.5,537.9688 775.5,537.9688 L684.5,537.9688 C679.5,537.9688 679.5,524.7246 679.5,524.7246 C679.5,524.7246 679.5,511.4805 684.5,511.4805 " fill="#E2E2F0" style="stroke:#181818;stroke-width:0.5;"/><path d="M775.5,511.4805 C770.5,511.4805 770.5,524.7246 770.5,524.7246 C770.5,537.9688 775.5,537.9688 775.5,537.9688 " fill="none" style="stroke:#181818;stroke-width:0.5;"/><text fill="#000000" font-family="sans-serif" font-size="14" lengthAdjust="spacing" textLength="81" x="684.5" y="530.0156">Task Queue</text><polygon fill="#181818" points="383.5,108.7988,393.5,112.7988,383.5,116.7988,387.5,112.7988" style="stroke:#181818;stroke-width:1.0;"/><line style="stroke:#181818;stroke-width:1.0;" x1="38.5" x2="389.5" y1="112.7988" y2="112.7988"/><text fill="#000000" font-family="sans-serif" font-size="13" font-weight="bold" lengthAdjust="spacing" textLength="9" x="45.5" y="108.0566">1</text><text fill="#000000" font-family="sans-serif" font-size="13" lengthAdjust="spacing" textLength="190" x="58.5" y="108.0566">[http] `send message` reqiest</text><polygon fill="#181818" points="567.5,138.1094,577.5,142.1094,567.5,146.1094,571.5,142.1094" style="stroke:#181818;stroke-width:1.0;"/><line style="stroke:#181818;stroke-width:1.0;" x1="395.5" x2="573.5" y1="142.1094" y2="142.1094"/><text fill="#000000" font-family="sans-serif" font-size="13" font-weight="bold" lengthAdjust="spacing" textLength="9" x="402.5" y="137.3672">2</text><text fill="#000000" font-family="sans-serif" font-size="13" lengthAdjust="spacing" textLength="79" x="415.5" y="137.3672">Save request</text><polygon fill="#181818" points="406.5,167.4199,396.5,171.4199,406.5,175.4199,402.5,171.4199" style="stroke:#181818;stroke-width:1.0;"/><line style="stroke:#181818;stroke-width:1.0;" x1="400.5" x2="578.5" y1="171.4199" y2="171.4199"/><text fill="#000000" font-family="sans-serif" font-size="13" font-weight="bold" lengthAdjust="spacing" textLength="9" x="412.5" y="166.6777">3</text><text fill="#000000" font-family="sans-serif" font-size="13" lengthAdjust="spacing" textLength="26" x="425.5" y="166.6777">ACK</text><line style="stroke:#181818;stroke-width:1.0;stroke-dasharray:2.0,2.0;" x1="395.5" x2="437.5" y1="200.7305" y2="200.7305"/><line style="stroke:#181818;stroke-width:1.0;stroke-dasharray:2.0,2.0;" x1="437.5" x2="437.5" y1="200.7305" y2="213.7305"/><line style="stroke:#181818;stroke-width:1.0;stroke-dasharray:2.0,2.0;" x1="396.5" x2="437.5" y1="213.7305" y2="213.7305"/><polygon fill="#181818" points="406.5,209.7305,396.5,213.7305,406.5,217.7305,402.5,213.7305" style="stroke:#181818;stroke-width:1.0;"/><text fill="#000000" font-family="sans-serif" font-size="13" font-weight="bold" lengthAdjust="spacing" textLength="9" x="402.5" y="195.9883">4</text><text fill="#000000" font-family="sans-serif" font-size="13" lengthAdjust="spacing" textLength="71" x="415.5" y="195.9883">Check auth</text><path d="M10,228.7305 L72,228.7305 L72,236.041 L62,246.041 L10,246.041 L10,228.7305 " fill="#EEEEEE" style="stroke:#000000;stroke-width:1.5;"/><rect fill="none" height="266.75" style="stroke:#000000;stroke-width:1.5;" width="780.5" x="10" y="228.7305"/><text fill="#000000" font-family="sans-serif" font-size="13" font-weight="bold" lengthAdjust="spacing" textLength="17" x="25" y="242.2988">alt</text><text fill="#000000" font-family="sans-serif" font-size="11" font-weight="bold" lengthAdjust="spacing" textLength="69" x="87" y="241.3652">[Auth is OK]</text><polygon fill="#181818" points="639.5,263.3516,649.5,267.3516,639.5,271.3516,643.5,267.3516" style="stroke:#181818;stroke-width:1.0;"/><line style="stroke:#181818;stroke-width:1.0;" x1="395.5" x2="645.5" y1="267.3516" y2="267.3516"/><text fill="#000000" font-family="sans-serif" font-size="13" font-weight="bold" lengthAdjust="spacing" textLength="9" x="402.5" y="262.6094">5</text><text fill="#000000" font-family="sans-serif" font-size="13" lengthAdjust="spacing" textLength="87" x="415.5" y="262.6094">Save message</text><polygon fill="#181818" points="406.5,292.6621,396.5,296.6621,406.5,300.6621,402.5,296.6621" style="stroke:#181818;stroke-width:1.0;"/><line style="stroke:#181818;stroke-width:1.0;" x1="400.5" x2="650.5" y1="296.6621" y2="296.6621"/><text fill="#000000" font-family="sans-serif" font-size="13" font-weight="bold" lengthAdjust="spacing" textLength="9" x="412.5" y="291.9199">6</text><text fill="#000000" font-family="sans-serif" font-size="13" lengthAdjust="spacing" textLength="87" x="425.5" y="291.9199">New record id</text><polygon fill="#181818" points="718,321.9727,728,325.9727,718,329.9727,722,325.9727" style="stroke:#181818;stroke-width:1.0;"/><line style="stroke:#181818;stroke-width:1.0;" x1="395.5" x2="724" y1="325.9727" y2="325.9727"/><text fill="#000000" font-family="sans-serif" font-size="13" font-weight="bold" lengthAdjust="spacing" textLength="9" x="402.5" y="321.2305">7</text><text fill="#000000" font-family="sans-serif" font-size="13" lengthAdjust="spacing" textLength="191" x="415.5" y="321.2305">Create new task with record id</text><polygon fill="#181818" points="406.5,351.2832,396.5,355.2832,406.5,359.2832,402.5,355.2832" style="stroke:#181818;stroke-width:1.0;"/><line style="stroke:#181818;stroke-width:1.0;" x1="400.5" x2="729" y1="355.2832" y2="355.2832"/><text fill="#000000" font-family="sans-serif" font-size="13" font-weight="bold" lengthAdjust="spacing" textLength="9" x="412.5" y="350.541">8</text><text fill="#000000" font-family="sans-serif" font-size="13" lengthAdjust="spacing" textLength="26" x="425.5" y="350.541">ACK</text><polygon fill="#181818" points="49.5,380.5938,39.5,384.5938,49.5,388.5938,45.5,384.5938" style="stroke:#181818;stroke-width:1.0;"/><line style="stroke:#181818;stroke-width:1.0;" x1="43.5" x2="394.5" y1="384.5938" y2="384.5938"/><text fill="#000000" font-family="sans-serif" font-size="13" font-weight="bold" lengthAdjust="spacing" textLength="9" x="55.5" y="379.8516">9</text><text fill="#000000" font-family="sans-serif" font-size="13" lengthAdjust="spacing" textLength="278" x="68.5" y="379.8516">[http] Response with code 201 and record id</text><line style="stroke:#000000;stroke-width:1.0;stroke-dasharray:2.0,2.0;" x1="10" x2="790.5" y1="393.5938" y2="393.5938"/><text fill="#000000" font-family="sans-serif" font-size="11" font-weight="bold" lengthAdjust="spacing" textLength="91" x="15" y="404.2285">[Auth is not OK]</text><polygon fill="#181818" points="567.5,424.8594,577.5,428.8594,567.5,432.8594,571.5,428.8594" style="stroke:#181818;stroke-width:1.0;"/><line style="stroke:#181818;stroke-width:1.0;" x1="395.5" x2="573.5" y1="428.8594" y2="428.8594"/><text fill="#000000" font-family="sans-serif" font-size="13" font-weight="bold" lengthAdjust="spacing" textLength="18" x="402.5" y="424.1172">10</text><text fill="#000000" font-family="sans-serif" font-size="13" lengthAdjust="spacing" textLength="138" x="424.5" y="424.1172">Save bad auth request</text><polygon fill="#181818" points="406.5,454.1699,396.5,458.1699,406.5,462.1699,402.5,458.1699" style="stroke:#181818;stroke-width:1.0;"/><line style="stroke:#181818;stroke-width:1.0;" x1="400.5" x2="578.5" y1="458.1699" y2="458.1699"/><text fill="#000000" font-family="sans-serif" font-size="13" font-weight="bold" lengthAdjust="spacing" textLength="18" x="412.5" y="453.4277">11</text><text fill="#000000" font-family="sans-serif" font-size="13" lengthAdjust="spacing" textLength="26" x="434.5" y="453.4277">ACK</text><polygon fill="#181818" points="49.5,483.4805,39.5,487.4805,49.5,491.4805,45.5,487.4805" style="stroke:#181818;stroke-width:1.0;"/><line style="stroke:#181818;stroke-width:1.0;" x1="43.5" x2="394.5" y1="487.4805" y2="487.4805"/><text fill="#000000" font-family="sans-serif" font-size="13" font-weight="bold" lengthAdjust="spacing" textLength="18" x="55.5" y="482.7383">12</text><text fill="#000000" font-family="sans-serif" font-size="13" lengthAdjust="spacing" textLength="311" x="77.5" y="482.7383">[http] Response with code 401 and error message</text><!--SRC=[bLB1IWCn4BtdAuPwBgXuAYAizI8LhLRn848dcs5tsJPfaud5ltTctRQBFPbBmhmtxyqyWfc3psjBqHWiEKHuInG14sIv3Nbk-1lUoHRpUwtko1g7Z1OJmUWXLB2G9gnefEWgLEa8tzrgpLcppPI5_OgfXMTzT-IkQepwmFX6bIVmKJDlFc6Po3jOKqgYl8H8suOI6w4eKrqciC0lKYJlaUjnZnJJsIzrhpgjgMm1CzUov8gXa1Sq2Pvcne2SNjVPNhKtFc2YhDWZxSIm3D51uuQDtIPY4mcPm0kDTTLT8pQd3QBMD-YWMkqYaF8mWXTAc-0bnKwb38xWylm2K78vIXfQ2UDitlZsi9GF_7UnGM0MNHV48Rd1LCVq_Z7KLJyKnIYVPv-SV1oPxWS0]--></g></svg>